<mxfile host="app.diagrams.net" modified="2021-07-08T07:05:29.645Z" agent="5.0 (Windows NT 10.0; Win64; x64) AppleWebKit/537.36 (KHTML, like Gecko) Chrome/91.0.4472.124 Safari/537.36" etag="SM9sFBZQ5QK1rvel7gDX" version="14.8.5" type="github">
  <diagram id="7eAGZfeV-LihmVY53dOc" name="Overview">
    <mxGraphModel dx="982" dy="1636" grid="1" gridSize="10" guides="1" tooltips="1" connect="1" arrows="1" fold="1" page="1" pageScale="1" pageWidth="850" pageHeight="1100" math="0" shadow="0">
      <root>
        <mxCell id="0" />
        <mxCell id="1" parent="0" />
        <mxCell id="ioN3LSF6hBzddgxGWX9J-3" value="Binance Smart Chain" style="rounded=0;whiteSpace=wrap;html=1;dashed=1;strokeWidth=2;align=left;verticalAlign=bottom;fillColor=#fff2cc;strokeColor=#d6b656;" parent="1" vertex="1">
          <mxGeometry x="160" y="-470" width="380" height="340" as="geometry" />
        </mxCell>
        <mxCell id="ioN3LSF6hBzddgxGWX9J-4" value="Ethereum" style="rounded=0;whiteSpace=wrap;html=1;dashed=1;strokeWidth=2;align=left;verticalAlign=top;fillColor=#e1d5e7;strokeColor=#9673a6;" parent="1" vertex="1">
          <mxGeometry x="160" y="-120" width="380" height="130" as="geometry" />
        </mxCell>
        <mxCell id="rTCVgAPROJNHZOBVz9fI-6" value="Pay Gas" style="edgeStyle=orthogonalEdgeStyle;rounded=0;orthogonalLoop=1;jettySize=auto;html=1;entryX=1;entryY=0.5;entryDx=0;entryDy=0;" parent="1" source="rTCVgAPROJNHZOBVz9fI-1" target="rTCVgAPROJNHZOBVz9fI-2" edge="1">
          <mxGeometry relative="1" as="geometry" />
        </mxCell>
        <mxCell id="rTCVgAPROJNHZOBVz9fI-10" value="Create Contract (Owner)" style="edgeStyle=orthogonalEdgeStyle;rounded=0;orthogonalLoop=1;jettySize=auto;html=1;exitX=0.5;exitY=1;exitDx=0;exitDy=0;entryX=0.75;entryY=1;entryDx=0;entryDy=0;" parent="1" source="rTCVgAPROJNHZOBVz9fI-1" target="rTCVgAPROJNHZOBVz9fI-2" edge="1">
          <mxGeometry x="-0.1176" relative="1" as="geometry">
            <mxPoint as="offset" />
            <Array as="points">
              <mxPoint x="450" y="-300" />
              <mxPoint x="270" y="-300" />
            </Array>
          </mxGeometry>
        </mxCell>
        <mxCell id="rTCVgAPROJNHZOBVz9fI-1" value="Gas Wallet" style="rounded=0;whiteSpace=wrap;html=1;fillColor=#d5e8d4;strokeColor=#82b366;" parent="1" vertex="1">
          <mxGeometry x="390" y="-410" width="120" height="60" as="geometry" />
        </mxCell>
        <mxCell id="ioN3LSF6hBzddgxGWX9J-15" style="edgeStyle=orthogonalEdgeStyle;rounded=0;orthogonalLoop=1;jettySize=auto;html=1;entryX=0.5;entryY=0;entryDx=0;entryDy=0;exitX=0.25;exitY=0;exitDx=0;exitDy=0;" parent="1" source="rTCVgAPROJNHZOBVz9fI-2" target="rTCVgAPROJNHZOBVz9fI-4" edge="1">
          <mxGeometry relative="1" as="geometry">
            <Array as="points">
              <mxPoint x="210" y="-570" />
              <mxPoint x="760" y="-570" />
              <mxPoint x="760" y="-350" />
            </Array>
          </mxGeometry>
        </mxCell>
        <mxCell id="ioN3LSF6hBzddgxGWX9J-16" value="BNB Grant Payout" style="edgeLabel;html=1;align=center;verticalAlign=middle;resizable=0;points=[];" parent="ioN3LSF6hBzddgxGWX9J-15" vertex="1" connectable="0">
          <mxGeometry x="-0.5787" y="1" relative="1" as="geometry">
            <mxPoint x="24" as="offset" />
          </mxGeometry>
        </mxCell>
        <mxCell id="rTCVgAPROJNHZOBVz9fI-2" value="Faucet Contract" style="rounded=0;whiteSpace=wrap;html=1;fillColor=#dae8fc;strokeColor=#6c8ebf;" parent="1" vertex="1">
          <mxGeometry x="180" y="-410" width="120" height="60" as="geometry" />
        </mxCell>
        <mxCell id="rTCVgAPROJNHZOBVz9fI-11" value="Signed Request Grant (Upon successful validation)" style="edgeStyle=orthogonalEdgeStyle;rounded=0;orthogonalLoop=1;jettySize=auto;html=1;exitX=0;exitY=0.25;exitDx=0;exitDy=0;entryX=0.25;entryY=1;entryDx=0;entryDy=0;" parent="1" source="rTCVgAPROJNHZOBVz9fI-3" target="rTCVgAPROJNHZOBVz9fI-2" edge="1">
          <mxGeometry x="-0.0323" relative="1" as="geometry">
            <mxPoint as="offset" />
            <Array as="points">
              <mxPoint x="210" y="-245" />
            </Array>
          </mxGeometry>
        </mxCell>
        <mxCell id="ioN3LSF6hBzddgxGWX9J-9" style="edgeStyle=orthogonalEdgeStyle;rounded=0;orthogonalLoop=1;jettySize=auto;html=1;exitX=0;exitY=0.75;exitDx=0;exitDy=0;entryX=0;entryY=0.5;entryDx=0;entryDy=0;" parent="1" source="rTCVgAPROJNHZOBVz9fI-3" target="ioN3LSF6hBzddgxGWX9J-7" edge="1">
          <mxGeometry relative="1" as="geometry">
            <Array as="points">
              <mxPoint x="310" y="-215" />
              <mxPoint x="310" y="-170" />
            </Array>
          </mxGeometry>
        </mxCell>
        <mxCell id="ioN3LSF6hBzddgxGWX9J-10" style="edgeStyle=orthogonalEdgeStyle;rounded=0;orthogonalLoop=1;jettySize=auto;html=1;entryX=0;entryY=0.5;entryDx=0;entryDy=0;exitX=0;exitY=0.75;exitDx=0;exitDy=0;" parent="1" source="rTCVgAPROJNHZOBVz9fI-3" target="ioN3LSF6hBzddgxGWX9J-5" edge="1">
          <mxGeometry relative="1" as="geometry" />
        </mxCell>
        <mxCell id="ioN3LSF6hBzddgxGWX9J-13" value="Validation Request" style="edgeLabel;html=1;align=center;verticalAlign=middle;resizable=0;points=[];" parent="ioN3LSF6hBzddgxGWX9J-10" vertex="1" connectable="0">
          <mxGeometry x="-0.318" relative="1" as="geometry">
            <mxPoint x="66" as="offset" />
          </mxGeometry>
        </mxCell>
        <mxCell id="rTCVgAPROJNHZOBVz9fI-3" value="Game" style="rounded=0;whiteSpace=wrap;html=1;" parent="1" vertex="1">
          <mxGeometry x="560" y="-260" width="120" height="60" as="geometry" />
        </mxCell>
        <mxCell id="rTCVgAPROJNHZOBVz9fI-4" value="User Wallet Address" style="rounded=0;whiteSpace=wrap;html=1;fillColor=#d5e8d4;strokeColor=#82b366;" parent="1" vertex="1">
          <mxGeometry x="700" y="-350" width="120" height="60" as="geometry" />
        </mxCell>
        <mxCell id="rTCVgAPROJNHZOBVz9fI-7" value="Private Key" style="endArrow=open;html=1;endSize=12;startArrow=diamondThin;startSize=14;startFill=0;edgeStyle=orthogonalEdgeStyle;exitX=0.25;exitY=0;exitDx=0;exitDy=0;entryX=1;entryY=0.75;entryDx=0;entryDy=0;" parent="1" source="rTCVgAPROJNHZOBVz9fI-3" target="rTCVgAPROJNHZOBVz9fI-1" edge="1">
          <mxGeometry x="-0.2432" relative="1" as="geometry">
            <mxPoint x="380" y="-290" as="sourcePoint" />
            <mxPoint x="540" y="-290" as="targetPoint" />
            <mxPoint as="offset" />
          </mxGeometry>
        </mxCell>
        <mxCell id="rTCVgAPROJNHZOBVz9fI-17" value="Play" style="edgeStyle=orthogonalEdgeStyle;rounded=0;orthogonalLoop=1;jettySize=auto;html=1;" parent="1" source="rTCVgAPROJNHZOBVz9fI-16" target="rTCVgAPROJNHZOBVz9fI-3" edge="1">
          <mxGeometry relative="1" as="geometry" />
        </mxCell>
        <mxCell id="rTCVgAPROJNHZOBVz9fI-16" value="User" style="shape=umlActor;verticalLabelPosition=bottom;verticalAlign=top;html=1;" parent="1" vertex="1">
          <mxGeometry x="755" y="-260" width="30" height="60" as="geometry" />
        </mxCell>
        <mxCell id="c5QjXPqIrnwtgLJtlVQ_-3" style="edgeStyle=orthogonalEdgeStyle;rounded=0;orthogonalLoop=1;jettySize=auto;html=1;entryX=0.75;entryY=0;entryDx=0;entryDy=0;" parent="1" source="c5QjXPqIrnwtgLJtlVQ_-1" target="rTCVgAPROJNHZOBVz9fI-2" edge="1">
          <mxGeometry relative="1" as="geometry" />
        </mxCell>
        <mxCell id="c5QjXPqIrnwtgLJtlVQ_-4" value="Deposit BNB for grants" style="edgeLabel;html=1;align=center;verticalAlign=middle;resizable=0;points=[];" parent="c5QjXPqIrnwtgLJtlVQ_-3" vertex="1" connectable="0">
          <mxGeometry x="-0.1333" relative="1" as="geometry">
            <mxPoint x="140" as="offset" />
          </mxGeometry>
        </mxCell>
        <mxCell id="c5QjXPqIrnwtgLJtlVQ_-5" style="edgeStyle=orthogonalEdgeStyle;rounded=0;orthogonalLoop=1;jettySize=auto;html=1;entryX=1;entryY=0.25;entryDx=0;entryDy=0;" parent="1" source="c5QjXPqIrnwtgLJtlVQ_-1" target="rTCVgAPROJNHZOBVz9fI-1" edge="1">
          <mxGeometry relative="1" as="geometry">
            <Array as="points">
              <mxPoint x="710" y="-510" />
              <mxPoint x="710" y="-395" />
            </Array>
          </mxGeometry>
        </mxCell>
        <mxCell id="c5QjXPqIrnwtgLJtlVQ_-6" value="Deposit BNB for gas" style="edgeLabel;html=1;align=center;verticalAlign=middle;resizable=0;points=[];" parent="c5QjXPqIrnwtgLJtlVQ_-5" vertex="1" connectable="0">
          <mxGeometry x="-0.1618" y="-1" relative="1" as="geometry">
            <mxPoint x="-100" y="12" as="offset" />
          </mxGeometry>
        </mxCell>
        <mxCell id="c5QjXPqIrnwtgLJtlVQ_-1" value="&lt;div&gt;&lt;span&gt;&lt;span style=&quot;white-space: pre&quot;&gt;	&lt;/span&gt;Developer&lt;/span&gt;&lt;/div&gt;" style="shape=umlActor;verticalLabelPosition=bottom;verticalAlign=top;html=1;align=left;spacingLeft=-40;" parent="1" vertex="1">
          <mxGeometry x="630" y="-540" width="30" height="60" as="geometry" />
        </mxCell>
        <mxCell id="ioN3LSF6hBzddgxGWX9J-12" value="Response" style="edgeStyle=orthogonalEdgeStyle;rounded=0;orthogonalLoop=1;jettySize=auto;html=1;entryX=0.25;entryY=1;entryDx=0;entryDy=0;" parent="1" source="ioN3LSF6hBzddgxGWX9J-5" target="rTCVgAPROJNHZOBVz9fI-3" edge="1">
          <mxGeometry x="-0.6297" relative="1" as="geometry">
            <mxPoint as="offset" />
          </mxGeometry>
        </mxCell>
        <mxCell id="ioN3LSF6hBzddgxGWX9J-5" value="ERC20 TokenHolderValidator&lt;br&gt;Contract" style="rounded=0;whiteSpace=wrap;html=1;fillColor=#dae8fc;strokeColor=#6c8ebf;" parent="1" vertex="1">
          <mxGeometry x="330" y="-100" width="120" height="60" as="geometry" />
        </mxCell>
        <mxCell id="ioN3LSF6hBzddgxGWX9J-11" style="edgeStyle=orthogonalEdgeStyle;rounded=0;orthogonalLoop=1;jettySize=auto;html=1;entryX=0.25;entryY=1;entryDx=0;entryDy=0;" parent="1" source="ioN3LSF6hBzddgxGWX9J-7" target="rTCVgAPROJNHZOBVz9fI-3" edge="1">
          <mxGeometry relative="1" as="geometry" />
        </mxCell>
        <mxCell id="ioN3LSF6hBzddgxGWX9J-14" value="Response" style="edgeLabel;html=1;align=center;verticalAlign=middle;resizable=0;points=[];" parent="ioN3LSF6hBzddgxGWX9J-11" vertex="1" connectable="0">
          <mxGeometry x="-0.0451" relative="1" as="geometry">
            <mxPoint x="-31" as="offset" />
          </mxGeometry>
        </mxCell>
        <mxCell id="ioN3LSF6hBzddgxGWX9J-7" value="BEP20 TokenHolderValidator&lt;br&gt;Contract" style="rounded=0;whiteSpace=wrap;html=1;fillColor=#dae8fc;strokeColor=#6c8ebf;" parent="1" vertex="1">
          <mxGeometry x="330" y="-200" width="120" height="60" as="geometry" />
        </mxCell>
      </root>
    </mxGraphModel>
  </diagram>
</mxfile>
